<svg id="Layer_1" enable-background="new 0 0 512 512" height="512" viewBox="0 0 512 512" width="512" xmlns="http://www.w3.org/2000/svg"><path d="m293.148 368.414c1.721 4.069-.183 8.763-4.252 10.484-6.945 2.938-14.139 5.424-21.45 7.416l-6.973 52.266c-.53 3.975-3.92 6.942-7.93 6.942h-59.565c-4.009 0-7.399-2.968-7.93-6.942l-6.972-52.253c-13.793-3.753-27.002-9.22-39.391-16.303l-41.866 32.011c-3.185 2.436-7.681 2.135-10.516-.698l-42.12-42.119c-2.835-2.836-3.134-7.331-.698-10.517l32.015-41.869c-7.078-12.381-12.542-25.587-16.295-39.386l-52.263-6.973c-3.974-.53-6.942-3.92-6.942-7.93v-59.565c0-4.01 2.968-7.399 6.942-7.93l52.265-6.973c3.754-13.799 9.218-27.004 16.295-39.383l-32.015-41.871c-2.436-3.186-2.137-7.682.698-10.517l42.12-42.119c2.834-2.834 7.331-3.133 10.516-.698l41.873 32.016c12.377-7.076 25.583-12.541 39.383-16.296l6.973-52.265c.53-3.974 3.92-6.942 7.929-6.942h59.565c4.009 0 7.399 2.968 7.93 6.942l6.971 52.254c13.793 3.752 27.002 9.218 39.391 16.302l41.867-32.011c3.185-2.436 7.681-2.135 10.516.698l42.119 42.119c2.835 2.836 3.134 7.331.698 10.517l-32.015 41.872c7.076 12.377 12.541 25.583 16.296 39.383l52.265 6.973c3.974.53 6.942 3.92 6.942 7.93v59.565c0 4.01-2.968 7.399-6.942 7.93l-52.255 6.971c-1.992 7.313-4.48 14.51-7.422 21.46-1.722 4.068-6.416 5.97-10.485 4.249-4.069-1.722-5.971-6.417-4.249-10.485 3.312-7.825 5.989-15.996 7.957-24.286.766-3.225 3.44-5.644 6.726-6.082l50.67-6.76v-45.558l-50.681-6.762c-3.285-.438-5.959-2.856-6.726-6.081-3.774-15.892-10.014-30.969-18.545-44.815-1.738-2.821-1.557-6.423.456-9.056l31.044-40.603-32.214-32.214-40.598 31.039c-2.632 2.013-6.234 2.193-9.055.456-13.862-8.541-28.943-14.782-44.822-18.55-3.225-.766-5.644-3.44-6.083-6.727l-6.759-50.67h-45.558l-6.762 50.681c-.438 3.285-2.856 5.96-6.081 6.726-15.891 3.775-30.969 10.015-44.815 18.545-2.822 1.739-6.423 1.557-9.055-.455l-40.603-31.045-32.216 32.214 31.044 40.603c2.013 2.633 2.194 6.234.456 9.056-8.532 13.849-14.771 28.927-18.544 44.815-.766 3.225-3.441 5.643-6.726 6.081l-50.681 6.761v45.558l50.68 6.762c3.285.438 5.96 2.857 6.726 6.082 3.771 15.888 10.01 30.967 18.544 44.817 1.738 2.821 1.557 6.423-.456 9.056l-31.042 40.6 32.215 32.214 40.596-31.039c2.632-2.012 6.233-2.194 9.055-.456 13.862 8.541 28.943 14.782 44.822 18.551 3.225.766 5.644 3.44 6.082 6.727l6.76 50.67h45.558l6.761-50.681c.438-3.285 2.856-5.96 6.081-6.726 8.29-1.97 16.459-4.646 24.281-7.954 4.066-1.721 8.763.182 10.485 4.251zm32.644-119.094c4.349.781 8.504-2.125 9.278-6.475 6.539-36.737-5.29-74.401-31.642-100.753-44.481-44.479-116.856-44.479-161.335 0-44.48 44.48-44.48 116.856 0 161.337 21.571 21.57 50.718 33.409 80.737 33.409 6.652 0 13.351-.582 20.015-1.769 4.35-.774 7.249-4.928 6.474-9.277-.774-4.351-4.93-7.258-9.278-6.475-31.592 5.623-63.979-4.547-86.635-27.203-38.242-38.242-38.242-100.466 0-138.708s100.465-38.243 138.708 0c22.656 22.655 32.826 55.043 27.203 86.636-.773 4.351 2.126 8.504 6.475 9.278zm163.436 129.951c20.212 20.213 27.698 49.803 19.536 77.224-.804 2.702-2.971 4.781-5.704 5.473-2.732.695-5.627-.105-7.621-2.098l-41.575-41.576-28.054 7.518-7.517 28.054 41.575 41.575c1.993 1.994 2.791 4.889 2.098 7.621-.692 2.733-2.771 4.899-5.473 5.704-7.334 2.183-14.824 3.246-22.247 3.246-20.332 0-40.169-7.977-54.976-22.782-19.183-19.184-26.858-46.599-20.607-72.571l-118.994-118.996c-25.975 6.253-53.389-1.426-72.571-20.607-20.212-20.213-27.698-49.804-19.536-77.224.804-2.702 2.971-4.781 5.704-5.473 2.734-.693 5.627.105 7.621 2.098l41.576 41.575 28.053-7.517 7.517-28.054-41.575-41.575c-1.993-1.994-2.791-4.889-2.098-7.621.692-2.732 2.771-4.899 5.473-5.703 27.419-8.165 57.01-.676 77.223 19.535 19.183 19.184 26.859 46.599 20.608 72.571l118.994 118.995c25.97-6.253 53.386 1.425 72.57 20.608zm-11.313 11.314c-16.146-16.145-39.62-22.021-61.268-15.335-2.833.879-5.92.11-8.018-1.986l-125.566-125.567c-2.098-2.098-2.862-5.184-1.987-8.019 6.686-21.646.81-45.122-15.335-61.267-12.598-12.597-29.781-18.971-47.129-17.998l34 34c2.021 2.021 2.811 4.967 2.071 7.728l-9.908 36.977c-.74 2.761-2.896 4.917-5.657 5.657l-36.977 9.907c-2.76.742-5.706-.05-7.727-2.07l-34-34c-.974 17.343 5.399 34.53 17.997 47.129 16.145 16.146 39.624 22.022 61.268 15.336.776-.24 1.572-.356 2.36-.356 2.091 0 4.135.82 5.658 2.343l125.565 125.565c2.098 2.098 2.862 5.184 1.987 8.019-6.686 21.646-.81 45.122 15.335 61.267 12.597 12.598 29.782 18.963 47.128 17.998l-33.999-34c-2.021-2.021-2.811-4.967-2.071-7.728l9.909-36.977c.74-2.761 2.896-4.917 5.656-5.657l36.977-9.908c2.763-.741 5.707.05 7.728 2.071l34 34c.973-17.344-5.4-34.531-17.997-47.129z"/></svg>