<svg id="Capa_1" enable-background="new 0 0 512 512" height="512" viewBox="0 0 512 512" width="512" xmlns="http://www.w3.org/2000/svg"><path d="m482 120h-10v-20c0-5.523-4.478-10-10-10h-82.275c-11.856-36.668-39.728-66.575-75.826-80.89-5.135-2.036-10.946.476-12.982 5.61s.476 10.946 5.609 12.982c40.615 16.106 69.474 55.795 69.474 102.298 0 39.447-21.404 76.079-55.857 95.598-11.808 6.687-19.143 19.727-19.143 34.032v10.37h-25v-105.857l27.071-27.071c3.905-3.905 3.905-10.237 0-14.143-3.906-3.905-10.236-3.905-14.143 0l-22.928 22.929-22.929-22.929c-3.906-3.905-10.236-3.905-14.143 0-3.905 3.905-3.905 10.237 0 14.143l27.072 27.071v105.857h-25v-10.39c0-14.273-7.38-27.333-19.261-34.084-40.104-22.783-61.452-67.155-54.386-113.046 5.632-36.622 31-69.844 68.165-84.765 5.125-2.058 7.612-7.88 5.555-13.006s-7.88-7.613-13.006-5.555c-36.202 14.534-64.085 44.429-75.857 80.846h-82.21c-5.522 0-10 4.477-10 10v20h-10c-16.542 0-30 13.458-30 30v302c0 16.542 13.458 30 30 30h156c0 16.542 13.458 30 30 30h80c16.542 0 30-13.458 30-30h156c16.542 0 30-13.458 30-30v-302c0-16.542-13.458-30-30-30zm-171 139.63c0-7.114 3.448-13.485 9-16.629 40.71-23.065 66-66.364 66-113 0-6.719-.52-13.408-1.537-20h67.537v312h-166c-7.282 0-14.112 1.965-20 5.38v-77.381h5c22.056 0 40-17.944 40-40zm-20 30.37v20c0 11.028-8.972 20-20 20h-30c-11.028 0-20-8.972-20-20v-20zm-231-180.01h67.51c-8.079 53.975 17.129 106.099 64.349 132.925 5.638 3.204 9.141 9.601 9.141 16.695v50.39c0 22.056 17.944 40 40 40h5v77.38c-5.888-3.415-12.718-5.38-20-5.38h-166zm146 372.01c0-11.028-8.972-20-20-20h-156c-5.514 0-10-4.486-10-10v-302c0-5.514 4.486-10 10-10h10v292c0 5.523 4.478 10 10 10h176c11.028 0 20 8.972 20 20v30h-30c-5.514 0-10-4.486-10-10zm286-30c0 5.514-4.486 10-10 10h-156c-11.028 0-20 8.972-20 20 0 5.514-4.486 10-10 10h-30v-30c0-11.028 8.972-20 20-20h176c5.522 0 10-4.477 10-10v-292h10c5.514 0 10 4.486 10 10z"/><circle cx="256" cy="10" r="10"/></svg>